<svg width="1440" height="572" fill="none" xmlns="http://www.w3.org/2000/svg"><g opacity=".1" clip-path="url(#clip0)"><path d="M4.442 228.581a4.03 4.03 0 014.028-4.029 4.029 4.029 0 11-4.028 4.029z" fill="url(#paint0_linear)"/><path d="M9.137 137.262H7.803v88.996h1.334v-88.996z" fill="url(#paint1_linear)"/><path d="M263.495 344.663a4.03 4.03 0 018.057 0 4.029 4.029 0 01-4.028 4.029c-2.2 0-4.029-1.804-4.029-4.029z" fill="url(#paint2_linear)"/><path d="M268.216 297.83h-1.335v44.485h1.335V297.83z" fill="url(#paint3_linear)"/><path d="M187.178 338.139a4.03 4.03 0 114.029 4.028c-2.2 0-4.029-1.804-4.029-4.028z" fill="url(#paint4_linear)"/><path d="M191.899 246.82h-1.335v88.971h1.335V246.82z" fill="url(#paint5_linear)"/><path d="M54.513 133.901a4.029 4.029 0 118.057.002 4.029 4.029 0 01-8.057-.002z" fill="url(#paint6_linear)"/><path d="M59.233 42.582h-1.335v88.971h1.335v-88.97z" fill="url(#paint7_linear)"/><path d="M94.747 154.34a4.03 4.03 0 114.029 4.028c-2.2.025-4.029-1.779-4.029-4.028z" fill="url(#paint8_linear)"/><path d="M99.468 63.045h-1.335v88.996h1.335V63.046z" fill="url(#paint9_linear)"/><path d="M160.388 384.082a4.029 4.029 0 118.058.002 4.029 4.029 0 01-8.058-.002z" fill="url(#paint10_linear)"/><path d="M165.108 292.764h-1.334v88.971h1.334v-88.971z" fill="url(#paint11_linear)"/><path d="M222.742 124.954a4.029 4.029 0 118.058.002 4.029 4.029 0 01-8.058-.002z" fill="url(#paint12_linear)"/><path d="M227.438 33.66h-1.335v88.971h1.335v-88.97z" fill="url(#paint13_linear)"/><path d="M111.553 121a4.029 4.029 0 118.058.002 4.029 4.029 0 01-8.058-.002z" fill="url(#paint14_linear)"/><path d="M116.273 74.192h-1.334v44.485h1.334V74.192z" fill="url(#paint15_linear)"/><path d="M31.726 108.94a4.03 4.03 0 118.058 0 4.03 4.03 0 01-8.058 0z" fill="url(#paint16_linear)"/><path d="M36.447 62.106h-1.335v44.486h1.334V62.106z" fill="url(#paint17_linear)"/><path d="M161.97 47.303a4.029 4.029 0 114.028 4.028c-2.199.025-4.028-1.804-4.028-4.028z" fill="url(#paint18_linear)"/><path d="M166.69.494h-1.334V44.98h1.334V.494z" fill="url(#paint19_linear)"/><path d="M105.918 372.862a4.029 4.029 0 118.058.002 4.029 4.029 0 01-8.058-.002z" fill="url(#paint20_linear)"/><path d="M110.614 281.543h-1.335v88.996h1.335v-88.996z" fill="url(#paint21_linear)"/><path d="M221.852 325.633a4.029 4.029 0 114.028 4.029c-2.224.024-4.028-1.78-4.028-4.029z" fill="url(#paint22_linear)"/><path d="M226.548 234.339h-1.335v88.996h1.335v-88.996z" fill="url(#paint23_linear)"/><path d="M27.698 549.815a4.029 4.029 0 114.028 4.029c-2.224.025-4.028-1.804-4.028-4.029z" fill="url(#paint24_linear)"/><path d="M32.393 240.468H31.06v307.024h1.334V240.468z" fill="url(#paint25_linear)"/><path d="M198.522 374.024a4.03 4.03 0 018.057 0 4.029 4.029 0 01-8.057 0z" fill="url(#paint26_linear)"/><path d="M203.218 64.677h-1.335V371.7h1.335V64.677z" fill="#C4C4C4"/><path d="M90.002 464.008a4.029 4.029 0 114.029 4.028c-2.225.025-4.029-1.804-4.029-4.028z" fill="url(#paint27_linear)"/><path d="M94.335 154H93v307.024h1.335V154z" fill="url(#paint28_linear)"/><path d="M175.291 225.862a4.029 4.029 0 114.028 4.029c-2.224.025-4.028-1.78-4.028-4.029z" fill="url(#paint29_linear)"/><path d="M180.011 53.679h-1.335v169.86h1.335V53.679z" fill="url(#paint30_linear)"/><path d="M-3.986 316.316a4.029 4.029 0 118.058.002 4.029 4.029 0 01-8.058-.002z" fill="url(#paint31_linear)"/><path d="M.735 144.133H-.6v169.86H.735v-169.86z" fill="url(#paint32_linear)"/><path d="M1318.77 380.722a4.033 4.033 0 014.03-4.029c2.23 0 4.03 1.804 4.03 4.029 0 2.224-1.8 4.028-4.03 4.028-2.22.025-4.03-1.804-4.03-4.028z" fill="url(#paint33_linear)"/><path d="M1323.47 316.366h-1.33v62.057h1.33v-62.057z" fill="url(#paint34_linear)"/><path d="M1214.85 290.614a4.033 4.033 0 014.03-4.029c2.22 0 4.03 1.804 4.03 4.029a4.033 4.033 0 01-4.03 4.028 4.033 4.033 0 01-4.03-4.028z" fill="url(#paint35_linear)"/><path d="M1219.55 127.673h-1.34v160.618h1.34V127.673z" fill="url(#paint36_linear)"/><path d="M1168.91 151.745a4.025 4.025 0 118.05 0c0 2.224-1.8 4.028-4.02 4.028-2.2.025-4.03-1.779-4.03-4.028z" fill="url(#paint37_linear)"/><path d="M1173.63 60.45h-1.34v88.996h1.34V60.451z" fill="url(#paint38_linear)"/><path d="M1293.64 221.884c0-2.225 1.8-4.029 4.03-4.029 2.22 0 4.03 1.804 4.03 4.029a4.033 4.033 0 01-4.03 4.028c-2.23.025-4.03-1.804-4.03-4.028z" fill="url(#paint39_linear)"/><path d="M1298.34 130.59H1297v88.995h1.34V130.59z" fill="url(#paint40_linear)"/><path d="M1421.17 228.903a4.025 4.025 0 118.05 0 4.025 4.025 0 11-8.05 0z" fill="url(#paint41_linear)"/><path d="M1425.89 137.608h-1.34v88.996h1.34v-88.996z" fill="url(#paint42_linear)"/><path d="M1281.8 296.273a4.033 4.033 0 014.03-4.028c2.23 0 4.03 1.804 4.03 4.028 0 2.225-1.8 4.029-4.03 4.029-2.22.024-4.03-1.804-4.03-4.029z" fill="url(#paint43_linear)"/><path d="M1286.52 127.055h-1.33V293.95h1.33V127.055z" fill="url(#paint44_linear)"/><path d="M1305.26 265.677a4.025 4.025 0 118.05 0 4.025 4.025 0 11-8.05 0z" fill="url(#paint45_linear)"/><path d="M1309.98 130.12h-1.34v133.234h1.34V130.12z" fill="url(#paint46_linear)"/><path d="M1247.77 442.655a4.033 4.033 0 014.03-4.028c2.22 0 4.03 1.804 4.03 4.028a4.034 4.034 0 01-4.03 4.029c-2.2 0-4.03-1.805-4.03-4.029z" fill="url(#paint47_linear)"/><path d="M1252.49 133.308h-1.33v307.024h1.33V133.308z" fill="url(#paint48_linear)"/><path d="M1365.29 309.347a4.025 4.025 0 118.05 0 4.025 4.025 0 11-8.05 0z" fill="url(#paint49_linear)"/><path d="M1370.01 0h-1.34v307.024h1.34V0z" fill="url(#paint50_linear)"/><path d="M1426.45 326.523a4.033 4.033 0 014.03-4.028c2.23 0 4.03 1.804 4.03 4.028 0 2.225-1.8 4.029-4.03 4.029a4.033 4.033 0 01-4.03-4.029z" fill="url(#paint51_linear)"/><path d="M1431.15 17.176h-1.33V324.2h1.33V17.176z" fill="url(#paint52_linear)"/><path d="M1179.61 510.248c0-2.224 1.8-4.028 4.03-4.028 2.22 0 4.03 1.804 4.03 4.028a4.033 4.033 0 01-4.03 4.029c-2.2 0-4.03-1.804-4.03-4.029z" fill="url(#paint53_linear)"/><path d="M1184.33 200.901H1183v307.024h1.33V200.901z" fill="url(#paint54_linear)"/><path d="M1437.43 388.63a4.025 4.025 0 118.05 0 4.025 4.025 0 11-8.05 0z" fill="url(#paint55_linear)"/><path d="M1126.89 428.197a4.033 4.033 0 014.03-4.028c2.23 0 4.03 1.804 4.03 4.028 0 2.225-1.8 4.029-4.03 4.029-2.22.025-4.03-1.78-4.03-4.029z" fill="url(#paint56_linear)"/><path d="M1131.59 256.014h-1.33v169.86h1.33v-169.86z" fill="url(#paint57_linear)"/><path d="M1196.34 243.089c0-2.225 1.8-4.029 4.03-4.029 2.22 0 4.03 1.804 4.03 4.029a4.033 4.033 0 01-4.03 4.028c-2.23.025-4.03-1.779-4.03-4.028z" fill="url(#paint58_linear)"/><path d="M1201.06 117.763h-1.33V240.79h1.33V117.763z" fill="url(#paint59_linear)"/></g><defs><linearGradient id="paint0_linear" x1="8.47" y1="205.897" x2="8.47" y2="135.856" gradientUnits="userSpaceOnUse"><stop stop-color="#A4FFFF"/><stop offset="1" stop-color="#A4FFFF" stop-opacity="0"/></linearGradient><linearGradient id="paint1_linear" x1="8.47" y1="205.905" x2="8.47" y2="135.884" gradientUnits="userSpaceOnUse"><stop stop-color="#A4FFFF"/><stop offset="1" stop-color="#A4FFFF" stop-opacity="0"/></linearGradient><linearGradient id="paint2_linear" x1="267.542" y1="321.981" x2="267.542" y2="251.961" gradientUnits="userSpaceOnUse"><stop stop-color="#A4FFFF"/><stop offset="1" stop-color="#A4FFFF" stop-opacity="0"/></linearGradient><linearGradient id="paint3_linear" x1="267.542" y1="332.157" x2="267.542" y2="297.148" gradientUnits="userSpaceOnUse"><stop stop-color="#A4FFFF"/><stop offset="1" stop-color="#A4FFFF" stop-opacity="0"/></linearGradient><linearGradient id="paint4_linear" x1="191.224" y1="315.457" x2="191.224" y2="245.437" gradientUnits="userSpaceOnUse"><stop stop-color="#A4FFFF"/><stop offset="1" stop-color="#A4FFFF" stop-opacity="0"/></linearGradient><linearGradient id="paint5_linear" x1="191.227" y1="315.456" x2="191.227" y2="245.438" gradientUnits="userSpaceOnUse"><stop stop-color="#A4FFFF"/><stop offset="1" stop-color="#A4FFFF" stop-opacity="0"/></linearGradient><linearGradient id="paint6_linear" x1="58.557" y1="111.226" x2="58.557" y2="41.206" gradientUnits="userSpaceOnUse"><stop stop-color="#A4FFFF"/><stop offset="1" stop-color="#A4FFFF" stop-opacity="0"/></linearGradient><linearGradient id="paint7_linear" x1="58.557" y1="111.225" x2="58.557" y2="41.207" gradientUnits="userSpaceOnUse"><stop stop-color="#A4FFFF"/><stop offset="1" stop-color="#A4FFFF" stop-opacity="0"/></linearGradient><linearGradient id="paint8_linear" x1="98.795" y1="131.676" x2="98.795" y2="61.654" gradientUnits="userSpaceOnUse"><stop stop-color="#A4FFFF"/><stop offset="1" stop-color="#A4FFFF" stop-opacity="0"/></linearGradient><linearGradient id="paint9_linear" x1="98.795" y1="131.676" x2="98.795" y2="61.657" gradientUnits="userSpaceOnUse"><stop stop-color="#A4FFFF"/><stop offset="1" stop-color="#A4FFFF" stop-opacity="0"/></linearGradient><linearGradient id="paint10_linear" x1="164.431" y1="361.411" x2="164.431" y2="291.41" gradientUnits="userSpaceOnUse"><stop stop-color="#A4FFFF"/><stop offset="1" stop-color="#A4FFFF" stop-opacity="0"/></linearGradient><linearGradient id="paint11_linear" x1="164.432" y1="361.404" x2="164.432" y2="291.386" gradientUnits="userSpaceOnUse"><stop stop-color="#A4FFFF"/><stop offset="1" stop-color="#A4FFFF" stop-opacity="0"/></linearGradient><linearGradient id="paint12_linear" x1="226.771" y1="102.282" x2="226.771" y2="32.263" gradientUnits="userSpaceOnUse"><stop stop-color="#A4FFFF"/><stop offset="1" stop-color="#A4FFFF" stop-opacity="0"/></linearGradient><linearGradient id="paint13_linear" x1="226.77" y1="102.281" x2="226.77" y2="32.263" gradientUnits="userSpaceOnUse"><stop stop-color="#A4FFFF"/><stop offset="1" stop-color="#A4FFFF" stop-opacity="0"/></linearGradient><linearGradient id="paint14_linear" x1="115.593" y1="98.331" x2="115.593" y2="28.312" gradientUnits="userSpaceOnUse"><stop stop-color="#A4FFFF"/><stop offset="1" stop-color="#A4FFFF" stop-opacity="0"/></linearGradient><linearGradient id="paint15_linear" x1="115.594" y1="108.507" x2="115.594" y2="73.498" gradientUnits="userSpaceOnUse"><stop stop-color="#A4FFFF"/><stop offset="1" stop-color="#A4FFFF" stop-opacity="0"/></linearGradient><linearGradient id="paint16_linear" x1="35.771" y1="86.251" x2="35.771" y2="16.21" gradientUnits="userSpaceOnUse"><stop stop-color="#A4FFFF"/><stop offset="1" stop-color="#A4FFFF" stop-opacity="0"/></linearGradient><linearGradient id="paint17_linear" x1="35.771" y1="96.435" x2="35.771" y2="61.425" gradientUnits="userSpaceOnUse"><stop stop-color="#A4FFFF"/><stop offset="1" stop-color="#A4FFFF" stop-opacity="0"/></linearGradient><linearGradient id="paint18_linear" x1="166.018" y1="24.635" x2="166.018" y2="-45.385" gradientUnits="userSpaceOnUse"><stop stop-color="#A4FFFF"/><stop offset="1" stop-color="#A4FFFF" stop-opacity="0"/></linearGradient><linearGradient id="paint19_linear" x1="166.02" y1="34.81" x2="166.02" y2="-.196" gradientUnits="userSpaceOnUse"><stop stop-color="#A4FFFF"/><stop offset="1" stop-color="#A4FFFF" stop-opacity="0"/></linearGradient><linearGradient id="paint20_linear" x1="109.957" y1="350.188" x2="109.957" y2="280.168" gradientUnits="userSpaceOnUse"><stop stop-color="#A4FFFF"/><stop offset="1" stop-color="#A4FFFF" stop-opacity="0"/></linearGradient><linearGradient id="paint21_linear" x1="109.956" y1="350.188" x2="109.956" y2="280.168" gradientUnits="userSpaceOnUse"><stop stop-color="#A4FFFF"/><stop offset="1" stop-color="#A4FFFF" stop-opacity="0"/></linearGradient><linearGradient id="paint22_linear" x1="225.887" y1="302.964" x2="225.887" y2="232.923" gradientUnits="userSpaceOnUse"><stop stop-color="#A4FFFF"/><stop offset="1" stop-color="#A4FFFF" stop-opacity="0"/></linearGradient><linearGradient id="paint23_linear" x1="225.888" y1="302.97" x2="225.888" y2="232.952" gradientUnits="userSpaceOnUse"><stop stop-color="#A4FFFF"/><stop offset="1" stop-color="#A4FFFF" stop-opacity="0"/></linearGradient><linearGradient id="paint24_linear" x1="31.735" y1="510.33" x2="31.735" y2="385.631" gradientUnits="userSpaceOnUse"><stop stop-color="#A4FFFF"/><stop offset="1" stop-color="#A4FFFF" stop-opacity="0"/></linearGradient><linearGradient id="paint25_linear" x1="31.736" y1="479.128" x2="31.736" y2="249.739" gradientUnits="userSpaceOnUse"><stop stop-color="#A4FFFF"/><stop offset="1" stop-color="#A4FFFF" stop-opacity="0"/></linearGradient><linearGradient id="paint26_linear" x1="202.548" y1="334.534" x2="202.548" y2="209.835" gradientUnits="userSpaceOnUse"><stop stop-color="#A4FFFF"/><stop offset="1" stop-color="#A4FFFF" stop-opacity="0"/></linearGradient><linearGradient id="paint27_linear" x1="94.045" y1="424.523" x2="94.045" y2="299.825" gradientUnits="userSpaceOnUse"><stop stop-color="#A4FFFF"/><stop offset="1" stop-color="#A4FFFF" stop-opacity="0"/></linearGradient><linearGradient id="paint28_linear" x1="93.658" y1="392.633" x2="93.658" y2="163.247" gradientUnits="userSpaceOnUse"><stop stop-color="#6D7676"/><stop offset="1" stop-color="#A4FFFF" stop-opacity="0"/></linearGradient><linearGradient id="paint29_linear" x1="179.33" y1="186.369" x2="179.33" y2="61.632" gradientUnits="userSpaceOnUse"><stop stop-color="#A4FFFF"/><stop offset="1" stop-color="#A4FFFF" stop-opacity="0"/></linearGradient><linearGradient id="paint30_linear" x1="179.33" y1="185.724" x2="179.33" y2="58.809" gradientUnits="userSpaceOnUse"><stop stop-color="#484D4D"/><stop offset="1" stop-color="#A4FFFF" stop-opacity="0"/></linearGradient><linearGradient id="paint31_linear" x1=".055" y1="276.828" x2=".055" y2="152.167" gradientUnits="userSpaceOnUse"><stop stop-color="#A4FFFF"/><stop offset="1" stop-color="#A4FFFF" stop-opacity="0"/></linearGradient><linearGradient id="paint32_linear" x1=".055" y1="276.159" x2=".055" y2="149.245" gradientUnits="userSpaceOnUse"><stop stop-color="#A4FFFF"/><stop offset="1" stop-color="#A4FFFF" stop-opacity="0"/></linearGradient><linearGradient id="paint33_linear" x1="1322.8" y1="358.066" x2="1322.8" y2="288.068" gradientUnits="userSpaceOnUse"><stop stop-color="#A4FFFF"/><stop offset="1" stop-color="#A4FFFF" stop-opacity="0"/></linearGradient><linearGradient id="paint34_linear" x1="1322.8" y1="364.217" x2="1322.8" y2="315.388" gradientUnits="userSpaceOnUse"><stop stop-color="#A4FFFF"/><stop offset="1" stop-color="#A4FFFF" stop-opacity="0"/></linearGradient><linearGradient id="paint35_linear" x1="1218.88" y1="267.943" x2="1218.88" y2="197.923" gradientUnits="userSpaceOnUse"><stop stop-color="#A4FFFF"/><stop offset="1" stop-color="#A4FFFF" stop-opacity="0"/></linearGradient><linearGradient id="paint36_linear" x1="1218.88" y1="251.561" x2="1218.88" y2="125.179" gradientUnits="userSpaceOnUse"><stop stop-color="#A4FFFF"/><stop offset="1" stop-color="#A4FFFF" stop-opacity="0"/></linearGradient><linearGradient id="paint37_linear" x1="1172.96" y1="129.083" x2="1172.96" y2="59.063" gradientUnits="userSpaceOnUse"><stop stop-color="#A4FFFF"/><stop offset="1" stop-color="#A4FFFF" stop-opacity="0"/></linearGradient><linearGradient id="paint38_linear" x1="1172.96" y1="129.083" x2="1172.96" y2="59.064" gradientUnits="userSpaceOnUse"><stop stop-color="#A4FFFF"/><stop offset="1" stop-color="#A4FFFF" stop-opacity="0"/></linearGradient><linearGradient id="paint39_linear" x1="1297.67" y1="199.207" x2="1297.67" y2="129.166" gradientUnits="userSpaceOnUse"><stop stop-color="#A4FFFF"/><stop offset="1" stop-color="#A4FFFF" stop-opacity="0"/></linearGradient><linearGradient id="paint40_linear" x1="1297.67" y1="199.213" x2="1297.67" y2="129.194" gradientUnits="userSpaceOnUse"><stop stop-color="#A4FFFF"/><stop offset="1" stop-color="#A4FFFF" stop-opacity="0"/></linearGradient><linearGradient id="paint41_linear" x1="1425.21" y1="206.234" x2="1425.21" y2="136.214" gradientUnits="userSpaceOnUse"><stop stop-color="#A4FFFF"/><stop offset="1" stop-color="#A4FFFF" stop-opacity="0"/></linearGradient><linearGradient id="paint42_linear" x1="1425.21" y1="206.234" x2="1425.21" y2="136.215" gradientUnits="userSpaceOnUse"><stop stop-color="#A4FFFF"/><stop offset="1" stop-color="#A4FFFF" stop-opacity="0"/></linearGradient><linearGradient id="paint43_linear" x1="1285.85" y1="256.788" x2="1285.85" y2="132.089" gradientUnits="userSpaceOnUse"><stop stop-color="#A4FFFF"/><stop offset="1" stop-color="#A4FFFF" stop-opacity="0"/></linearGradient><linearGradient id="paint44_linear" x1="1285.85" y1="256.79" x2="1285.85" y2="132.092" gradientUnits="userSpaceOnUse"><stop stop-color="#A4FFFF"/><stop offset="1" stop-color="#A4FFFF" stop-opacity="0"/></linearGradient><linearGradient id="paint45_linear" x1="1309.3" y1="226.18" x2="1309.3" y2="101.481" gradientUnits="userSpaceOnUse"><stop stop-color="#A4FFFF"/><stop offset="1" stop-color="#A4FFFF" stop-opacity="0"/></linearGradient><linearGradient id="paint46_linear" x1="1309.3" y1="233.675" x2="1309.3" y2="134.127" gradientUnits="userSpaceOnUse"><stop stop-color="#A4FFFF"/><stop offset="1" stop-color="#A4FFFF" stop-opacity="0"/></linearGradient><linearGradient id="paint47_linear" x1="1251.82" y1="403.166" x2="1251.82" y2="278.467" gradientUnits="userSpaceOnUse"><stop stop-color="#A4FFFF"/><stop offset="1" stop-color="#A4FFFF" stop-opacity="0"/></linearGradient><linearGradient id="paint48_linear" x1="1251.82" y1="371.961" x2="1251.82" y2="142.573" gradientUnits="userSpaceOnUse"><stop stop-color="#A4FFFF"/><stop offset="1" stop-color="#A4FFFF" stop-opacity="0"/></linearGradient><linearGradient id="paint49_linear" x1="1369.33" y1="269.841" x2="1369.33" y2="145.104" gradientUnits="userSpaceOnUse"><stop stop-color="#A4FFFF"/><stop offset="1" stop-color="#A4FFFF" stop-opacity="0"/></linearGradient><linearGradient id="paint50_linear" x1="1369.33" y1="238.647" x2="1369.33" y2="9.259" gradientUnits="userSpaceOnUse"><stop stop-color="#A4FFFF"/><stop offset="1" stop-color="#A4FFFF" stop-opacity="0"/></linearGradient><linearGradient id="paint51_linear" x1="1430.49" y1="287.022" x2="1430.49" y2="162.288" gradientUnits="userSpaceOnUse"><stop stop-color="#A4FFFF"/><stop offset="1" stop-color="#A4FFFF" stop-opacity="0"/></linearGradient><linearGradient id="paint52_linear" x1="1430.49" y1="255.831" x2="1430.49" y2="26.441" gradientUnits="userSpaceOnUse"><stop stop-color="#A4FFFF"/><stop offset="1" stop-color="#A4FFFF" stop-opacity="0"/></linearGradient><linearGradient id="paint53_linear" x1="1183.66" y1="470.758" x2="1183.66" y2="346.06" gradientUnits="userSpaceOnUse"><stop stop-color="#A4FFFF"/><stop offset="1" stop-color="#A4FFFF" stop-opacity="0"/></linearGradient><linearGradient id="paint54_linear" x1="1183.66" y1="439.554" x2="1183.66" y2="210.168" gradientUnits="userSpaceOnUse"><stop stop-color="#A4FFFF"/><stop offset="1" stop-color="#A4FFFF" stop-opacity="0"/></linearGradient><linearGradient id="paint55_linear" x1="1441.47" y1="349.146" x2="1441.47" y2="224.485" gradientUnits="userSpaceOnUse"><stop stop-color="#A4FFFF"/><stop offset="1" stop-color="#A4FFFF" stop-opacity="0"/></linearGradient><linearGradient id="paint56_linear" x1="1130.93" y1="388.719" x2="1130.93" y2="264.02" gradientUnits="userSpaceOnUse"><stop stop-color="#A4FFFF"/><stop offset="1" stop-color="#A4FFFF" stop-opacity="0"/></linearGradient><linearGradient id="paint57_linear" x1="1130.93" y1="388.058" x2="1130.93" y2="261.146" gradientUnits="userSpaceOnUse"><stop stop-color="#A4FFFF"/><stop offset="1" stop-color="#A4FFFF" stop-opacity="0"/></linearGradient><linearGradient id="paint58_linear" x1="1200.39" y1="203.61" x2="1200.39" y2="78.912" gradientUnits="userSpaceOnUse"><stop stop-color="#A4FFFF"/><stop offset="1" stop-color="#A4FFFF" stop-opacity="0"/></linearGradient><linearGradient id="paint59_linear" x1="1200.39" y1="213.385" x2="1200.39" y2="121.474" gradientUnits="userSpaceOnUse"><stop stop-color="#A4FFFF"/><stop offset="1" stop-color="#A4FFFF" stop-opacity="0"/></linearGradient><clipPath id="clip0"><path fill="#fff" transform="translate(-22)" d="M0 0h1537v572H0z"/></clipPath></defs></svg>