<svg width="204" height="554" fill="none" xmlns="http://www.w3.org/2000/svg"><path d="M160.178 338.139a4.03 4.03 0 114.029 4.028c-2.2 0-4.029-1.804-4.029-4.028z" fill="url(#paint0_linear)"/><path d="M164.899 246.82h-1.335v88.971h1.335V246.82z" fill="url(#paint1_linear)"/><path d="M27.513 133.901a4.029 4.029 0 118.057.002 4.029 4.029 0 01-8.057-.002z" fill="url(#paint2_linear)"/><path d="M32.233 42.582h-1.335v88.971h1.335v-88.97z" fill="url(#paint3_linear)"/><path d="M67.747 154.34a4.03 4.03 0 114.029 4.028c-2.2.025-4.029-1.779-4.029-4.028z" fill="url(#paint4_linear)"/><path d="M72.468 63.045h-1.335v88.996h1.335V63.046z" fill="url(#paint5_linear)"/><path d="M133.388 384.082a4.029 4.029 0 118.058.002 4.029 4.029 0 01-8.058-.002z" fill="url(#paint6_linear)"/><path d="M138.108 292.764h-1.334v88.971h1.334v-88.971z" fill="url(#paint7_linear)"/><path d="M195.742 124.954a4.029 4.029 0 118.058.002 4.029 4.029 0 01-8.058-.002z" fill="url(#paint8_linear)"/><path d="M200.438 33.66h-1.335v88.971h1.335v-88.97z" fill="url(#paint9_linear)"/><path d="M84.553 121a4.029 4.029 0 118.058.002 4.029 4.029 0 01-8.058-.002z" fill="url(#paint10_linear)"/><path d="M89.273 74.192H87.94v44.485h1.334V74.192z" fill="url(#paint11_linear)"/><path d="M4.726 108.94a4.03 4.03 0 118.058 0 4.03 4.03 0 01-8.058 0z" fill="url(#paint12_linear)"/><path d="M9.447 62.106H8.112v44.486h1.335V62.106z" fill="url(#paint13_linear)"/><path d="M134.97 47.303a4.029 4.029 0 114.028 4.028c-2.199.025-4.028-1.804-4.028-4.028z" fill="url(#paint14_linear)"/><path d="M139.69.494h-1.334V44.98h1.334V.494z" fill="url(#paint15_linear)"/><path d="M78.918 372.862a4.029 4.029 0 118.058.002 4.029 4.029 0 01-8.058-.002z" fill="url(#paint16_linear)"/><path d="M83.614 281.543h-1.335v88.996h1.335v-88.996z" fill="url(#paint17_linear)"/><path d="M194.852 325.633a4.029 4.029 0 114.028 4.029c-2.224.024-4.028-1.78-4.028-4.029z" fill="url(#paint18_linear)"/><path d="M199.548 234.339h-1.335v88.996h1.335v-88.996z" fill="url(#paint19_linear)"/><path d="M.698 549.815a4.029 4.029 0 114.028 4.029c-2.224.025-4.028-1.804-4.028-4.029z" fill="url(#paint20_linear)"/><path d="M5.393 240.468H4.06v307.024h1.334V240.468z" fill="url(#paint21_linear)"/><path d="M171.522 374.024a4.03 4.03 0 018.057 0 4.029 4.029 0 01-8.057 0z" fill="url(#paint22_linear)"/><path d="M176.218 64.677h-1.335V371.7h1.335V64.677z" fill="url(#paint23_linear)"/><path d="M63.002 464.008a4.029 4.029 0 114.029 4.028c-2.225.025-4.029-1.804-4.029-4.028z" fill="url(#paint24_linear)"/><path d="M67.722 154.686h-1.334V461.71h1.334V154.686z" fill="url(#paint25_linear)"/><path d="M148.291 225.862a4.029 4.029 0 114.028 4.029c-2.224.025-4.028-1.78-4.028-4.029z" fill="url(#paint26_linear)"/><path d="M153.011 53.679h-1.335v169.86h1.335V53.679z" fill="url(#paint27_linear)"/><defs><linearGradient id="paint0_linear" x1="164.224" y1="315.457" x2="164.224" y2="245.437" gradientUnits="userSpaceOnUse"><stop stop-color="#A4FFFF"/><stop offset="1" stop-color="#A4FFFF" stop-opacity="0"/></linearGradient><linearGradient id="paint1_linear" x1="164.227" y1="315.456" x2="164.227" y2="245.438" gradientUnits="userSpaceOnUse"><stop stop-color="#A4FFFF"/><stop offset="1" stop-color="#A4FFFF" stop-opacity="0"/></linearGradient><linearGradient id="paint2_linear" x1="31.557" y1="111.226" x2="31.557" y2="41.206" gradientUnits="userSpaceOnUse"><stop stop-color="#A4FFFF"/><stop offset="1" stop-color="#A4FFFF" stop-opacity="0"/></linearGradient><linearGradient id="paint3_linear" x1="31.557" y1="111.225" x2="31.557" y2="41.207" gradientUnits="userSpaceOnUse"><stop stop-color="#A4FFFF"/><stop offset="1" stop-color="#A4FFFF" stop-opacity="0"/></linearGradient><linearGradient id="paint4_linear" x1="71.795" y1="131.676" x2="71.795" y2="61.654" gradientUnits="userSpaceOnUse"><stop stop-color="#A4FFFF"/><stop offset="1" stop-color="#A4FFFF" stop-opacity="0"/></linearGradient><linearGradient id="paint5_linear" x1="71.795" y1="131.676" x2="71.795" y2="61.657" gradientUnits="userSpaceOnUse"><stop stop-color="#A4FFFF"/><stop offset="1" stop-color="#A4FFFF" stop-opacity="0"/></linearGradient><linearGradient id="paint6_linear" x1="137.431" y1="361.411" x2="137.431" y2="291.41" gradientUnits="userSpaceOnUse"><stop stop-color="#A4FFFF"/><stop offset="1" stop-color="#A4FFFF" stop-opacity="0"/></linearGradient><linearGradient id="paint7_linear" x1="137.432" y1="361.404" x2="137.432" y2="291.386" gradientUnits="userSpaceOnUse"><stop stop-color="#A4FFFF"/><stop offset="1" stop-color="#A4FFFF" stop-opacity="0"/></linearGradient><linearGradient id="paint8_linear" x1="199.771" y1="102.282" x2="199.771" y2="32.263" gradientUnits="userSpaceOnUse"><stop stop-color="#A4FFFF"/><stop offset="1" stop-color="#A4FFFF" stop-opacity="0"/></linearGradient><linearGradient id="paint9_linear" x1="199.77" y1="102.281" x2="199.77" y2="32.263" gradientUnits="userSpaceOnUse"><stop stop-color="#A4FFFF"/><stop offset="1" stop-color="#A4FFFF" stop-opacity="0"/></linearGradient><linearGradient id="paint10_linear" x1="88.593" y1="98.331" x2="88.593" y2="28.312" gradientUnits="userSpaceOnUse"><stop stop-color="#A4FFFF"/><stop offset="1" stop-color="#A4FFFF" stop-opacity="0"/></linearGradient><linearGradient id="paint11_linear" x1="88.594" y1="108.507" x2="88.594" y2="73.498" gradientUnits="userSpaceOnUse"><stop stop-color="#A4FFFF"/><stop offset="1" stop-color="#A4FFFF" stop-opacity="0"/></linearGradient><linearGradient id="paint12_linear" x1="8.771" y1="86.251" x2="8.771" y2="16.21" gradientUnits="userSpaceOnUse"><stop stop-color="#A4FFFF"/><stop offset="1" stop-color="#A4FFFF" stop-opacity="0"/></linearGradient><linearGradient id="paint13_linear" x1="8.771" y1="96.435" x2="8.771" y2="61.425" gradientUnits="userSpaceOnUse"><stop stop-color="#A4FFFF"/><stop offset="1" stop-color="#A4FFFF" stop-opacity="0"/></linearGradient><linearGradient id="paint14_linear" x1="139.018" y1="24.635" x2="139.018" y2="-45.385" gradientUnits="userSpaceOnUse"><stop stop-color="#A4FFFF"/><stop offset="1" stop-color="#A4FFFF" stop-opacity="0"/></linearGradient><linearGradient id="paint15_linear" x1="139.02" y1="34.81" x2="139.02" y2="-.196" gradientUnits="userSpaceOnUse"><stop stop-color="#A4FFFF"/><stop offset="1" stop-color="#A4FFFF" stop-opacity="0"/></linearGradient><linearGradient id="paint16_linear" x1="82.957" y1="350.188" x2="82.957" y2="280.168" gradientUnits="userSpaceOnUse"><stop stop-color="#A4FFFF"/><stop offset="1" stop-color="#A4FFFF" stop-opacity="0"/></linearGradient><linearGradient id="paint17_linear" x1="82.956" y1="350.188" x2="82.956" y2="280.168" gradientUnits="userSpaceOnUse"><stop stop-color="#A4FFFF"/><stop offset="1" stop-color="#A4FFFF" stop-opacity="0"/></linearGradient><linearGradient id="paint18_linear" x1="198.887" y1="302.964" x2="198.887" y2="232.923" gradientUnits="userSpaceOnUse"><stop stop-color="#A4FFFF"/><stop offset="1" stop-color="#A4FFFF" stop-opacity="0"/></linearGradient><linearGradient id="paint19_linear" x1="198.888" y1="302.97" x2="198.888" y2="232.952" gradientUnits="userSpaceOnUse"><stop stop-color="#A4FFFF"/><stop offset="1" stop-color="#A4FFFF" stop-opacity="0"/></linearGradient><linearGradient id="paint20_linear" x1="4.734" y1="510.33" x2="4.734" y2="385.631" gradientUnits="userSpaceOnUse"><stop stop-color="#A4FFFF"/><stop offset="1" stop-color="#A4FFFF" stop-opacity="0"/></linearGradient><linearGradient id="paint21_linear" x1="4.736" y1="479.128" x2="4.736" y2="249.739" gradientUnits="userSpaceOnUse"><stop stop-color="#A4FFFF"/><stop offset="1" stop-color="#A4FFFF" stop-opacity="0"/></linearGradient><linearGradient id="paint22_linear" x1="175.548" y1="334.534" x2="175.548" y2="209.835" gradientUnits="userSpaceOnUse"><stop stop-color="#A4FFFF"/><stop offset="1" stop-color="#A4FFFF" stop-opacity="0"/></linearGradient><linearGradient id="paint23_linear" x1="175.55" y1="303.331" x2="175.55" y2="73.943" gradientUnits="userSpaceOnUse"><stop stop-color="#A4FFFF"/><stop offset="1" stop-color="#A4FFFF" stop-opacity="0"/></linearGradient><linearGradient id="paint24_linear" x1="67.045" y1="424.523" x2="67.045" y2="299.825" gradientUnits="userSpaceOnUse"><stop stop-color="#A4FFFF"/><stop offset="1" stop-color="#A4FFFF" stop-opacity="0"/></linearGradient><linearGradient id="paint25_linear" x1="67.046" y1="393.319" x2="67.046" y2="163.932" gradientUnits="userSpaceOnUse"><stop stop-color="#A4FFFF"/><stop offset="1" stop-color="#A4FFFF" stop-opacity="0"/></linearGradient><linearGradient id="paint26_linear" x1="152.33" y1="186.369" x2="152.33" y2="61.632" gradientUnits="userSpaceOnUse"><stop stop-color="#A4FFFF"/><stop offset="1" stop-color="#A4FFFF" stop-opacity="0"/></linearGradient><linearGradient id="paint27_linear" x1="152.33" y1="185.724" x2="152.33" y2="58.809" gradientUnits="userSpaceOnUse"><stop stop-color="#A4FFFF"/><stop offset="1" stop-color="#A4FFFF" stop-opacity="0"/></linearGradient></defs></svg>