<svg width="1440" height="572" viewBox="0 0 1440 572" fill="none" xmlns="http://www.w3.org/2000/svg">
<g opacity="0.1" clip-path="url(#clip0)">
<path d="M4.44171 228.581C4.44171 226.357 6.24585 224.552 8.47012 224.552C10.6944 224.552 12.4985 226.357 12.4985 228.581C12.4985 230.805 10.6944 232.609 8.47012 232.609C6.24585 232.609 4.44171 230.805 4.44171 228.581Z" fill="url(#paint0_linear)"/>
<path d="M9.13735 137.262H7.8028V226.258H9.13735V137.262Z" fill="url(#paint1_linear)"/>
<path d="M263.495 344.663C263.495 342.439 265.3 340.635 267.524 340.635C269.748 340.635 271.552 342.439 271.552 344.663C271.552 346.888 269.748 348.692 267.524 348.692C265.324 348.692 263.495 346.888 263.495 344.663Z" fill="url(#paint2_linear)"/>
<path d="M268.216 297.83H266.881V342.315H268.216V297.83Z" fill="url(#paint3_linear)"/>
<path d="M187.178 338.139C187.178 335.914 188.982 334.11 191.207 334.11C193.431 334.11 195.235 335.914 195.235 338.139C195.235 340.363 193.431 342.167 191.207 342.167C189.007 342.167 187.178 340.363 187.178 338.139Z" fill="url(#paint4_linear)"/>
<path d="M191.899 246.82H190.564V335.791H191.899V246.82Z" fill="url(#paint5_linear)"/>
<path d="M54.5126 133.901C54.5126 131.677 56.3167 129.873 58.541 129.873C60.7653 129.873 62.5694 131.677 62.5694 133.901C62.5694 136.125 60.7653 137.929 58.541 137.929C56.3167 137.929 54.5126 136.125 54.5126 133.901Z" fill="url(#paint6_linear)"/>
<path d="M59.2329 42.5822H57.8984V131.553H59.2329V42.5822Z" fill="url(#paint7_linear)"/>
<path d="M94.7472 154.34C94.7472 152.115 96.5513 150.311 98.7756 150.311C101 150.311 102.804 152.115 102.804 154.34C102.804 156.564 101 158.368 98.7756 158.368C96.5761 158.393 94.7472 156.589 94.7472 154.34Z" fill="url(#paint8_linear)"/>
<path d="M99.4676 63.0455H98.133V152.041H99.4676V63.0455Z" fill="url(#paint9_linear)"/>
<path d="M160.388 384.082C160.388 381.858 162.192 380.054 164.416 380.054C166.641 380.054 168.445 381.858 168.445 384.082C168.445 386.307 166.641 388.111 164.416 388.111C162.192 388.111 160.388 386.307 160.388 384.082Z" fill="url(#paint10_linear)"/>
<path d="M165.108 292.764H163.774V381.735H165.108V292.764Z" fill="url(#paint11_linear)"/>
<path d="M222.742 124.954C222.742 122.73 224.546 120.926 226.77 120.926C228.994 120.926 230.799 122.73 230.799 124.954C230.799 127.179 228.994 128.983 226.77 128.983C224.546 128.983 222.742 127.179 222.742 124.954Z" fill="url(#paint12_linear)"/>
<path d="M227.438 33.6603H226.103V122.631H227.438V33.6603Z" fill="url(#paint13_linear)"/>
<path d="M111.553 121C111.553 118.776 113.357 116.972 115.581 116.972C117.806 116.972 119.61 118.776 119.61 121C119.61 123.224 117.806 125.029 115.581 125.029C113.357 125.029 111.553 123.224 111.553 121Z" fill="url(#paint14_linear)"/>
<path d="M116.273 74.1916H114.939V118.677H116.273V74.1916Z" fill="url(#paint15_linear)"/>
<path d="M31.7261 108.94C31.7261 106.715 33.5302 104.911 35.7545 104.911C37.9787 104.911 39.7829 106.715 39.7829 108.94C39.7829 111.164 37.9787 112.968 35.7545 112.968C33.5302 112.968 31.7261 111.164 31.7261 108.94Z" fill="url(#paint16_linear)"/>
<path d="M36.4465 62.1064H35.1119V106.592H36.4465V62.1064Z" fill="url(#paint17_linear)"/>
<path d="M161.97 47.3026C161.97 45.0783 163.774 43.2742 165.998 43.2742C168.222 43.2742 170.027 45.0783 170.027 47.3026C170.027 49.5269 168.222 51.331 165.998 51.331C163.799 51.3557 161.97 49.5269 161.97 47.3026Z" fill="url(#paint18_linear)"/>
<path d="M166.69 0.493988H165.356V44.9795H166.69V0.493988Z" fill="url(#paint19_linear)"/>
<path d="M105.918 372.862C105.918 370.638 107.722 368.834 109.946 368.834C112.171 368.834 113.975 370.638 113.975 372.862C113.975 375.086 112.171 376.89 109.946 376.89C107.722 376.89 105.918 375.086 105.918 372.862Z" fill="url(#paint20_linear)"/>
<path d="M110.614 281.543H109.279V370.539H110.614V281.543Z" fill="url(#paint21_linear)"/>
<path d="M221.852 325.633C221.852 323.409 223.656 321.605 225.88 321.605C228.105 321.605 229.909 323.409 229.909 325.633C229.909 327.858 228.105 329.662 225.88 329.662C223.656 329.686 221.852 327.882 221.852 325.633Z" fill="url(#paint22_linear)"/>
<path d="M226.548 234.339H225.213V323.335H226.548V234.339Z" fill="url(#paint23_linear)"/>
<path d="M27.6977 549.815C27.6977 547.591 29.5018 545.787 31.7261 545.787C33.9504 545.787 35.7545 547.591 35.7545 549.815C35.7545 552.04 33.9504 553.844 31.7261 553.844C29.5018 553.869 27.6977 552.04 27.6977 549.815Z" fill="url(#paint24_linear)"/>
<path d="M32.3934 240.468H31.0588V547.492H32.3934V240.468Z" fill="url(#paint25_linear)"/>
<path d="M198.522 374.024C198.522 371.8 200.326 369.995 202.55 369.995C204.775 369.995 206.579 371.8 206.579 374.024C206.579 376.248 204.775 378.052 202.55 378.052C200.326 378.052 198.522 376.248 198.522 374.024Z" fill="url(#paint26_linear)"/>
<path d="M203.218 64.6766H201.883V371.701H203.218V64.6766Z" fill="#C4C4C4"/>
<path d="M90.0021 464.008C90.0021 461.784 91.8062 459.98 94.0305 459.98C96.2547 459.98 98.0589 461.784 98.0589 464.008C98.0589 466.232 96.2547 468.036 94.0305 468.036C91.8062 468.061 90.0021 466.232 90.0021 464.008Z" fill="url(#paint27_linear)"/>
<path d="M94.3346 154H93V461.024H94.3346V154Z" fill="url(#paint28_linear)"/>
<path d="M175.291 225.862C175.291 223.638 177.095 221.834 179.319 221.834C181.543 221.834 183.347 223.638 183.347 225.862C183.347 228.087 181.543 229.891 179.319 229.891C177.095 229.916 175.291 228.111 175.291 225.862Z" fill="url(#paint29_linear)"/>
<path d="M180.011 53.6788H178.676V223.539H180.011V53.6788Z" fill="url(#paint30_linear)"/>
<path d="M-3.98584 316.316C-3.98584 314.092 -2.1817 312.288 0.0425701 312.288C2.26684 312.288 4.07097 314.092 4.07097 316.316C4.07097 318.54 2.26684 320.345 0.0425701 320.345C-2.1817 320.345 -3.98584 318.54 -3.98584 316.316Z" fill="url(#paint31_linear)"/>
<path d="M0.73453 144.133H-0.600037V313.993H0.73453V144.133Z" fill="url(#paint32_linear)"/>
<path d="M1318.77 380.722C1318.77 378.497 1320.58 376.693 1322.8 376.693C1325.03 376.693 1326.83 378.497 1326.83 380.722C1326.83 382.946 1325.03 384.75 1322.8 384.75C1320.58 384.775 1318.77 382.946 1318.77 380.722Z" fill="url(#paint33_linear)"/>
<path d="M1323.47 316.366H1322.14V378.423H1323.47V316.366Z" fill="url(#paint34_linear)"/>
<path d="M1214.85 290.614C1214.85 288.389 1216.66 286.585 1218.88 286.585C1221.1 286.585 1222.91 288.389 1222.91 290.614C1222.91 292.838 1221.1 294.642 1218.88 294.642C1216.66 294.642 1214.85 292.838 1214.85 290.614Z" fill="url(#paint35_linear)"/>
<path d="M1219.55 127.673H1218.21V288.291H1219.55V127.673Z" fill="url(#paint36_linear)"/>
<path d="M1168.91 151.745C1168.91 149.521 1170.71 147.717 1172.94 147.717C1175.16 147.717 1176.96 149.521 1176.96 151.745C1176.96 153.969 1175.16 155.773 1172.94 155.773C1170.74 155.798 1168.91 153.994 1168.91 151.745Z" fill="url(#paint37_linear)"/>
<path d="M1173.63 60.4508H1172.29V149.446H1173.63V60.4508Z" fill="url(#paint38_linear)"/>
<path d="M1293.64 221.884C1293.64 219.659 1295.44 217.855 1297.67 217.855C1299.89 217.855 1301.7 219.659 1301.7 221.884C1301.7 224.108 1299.89 225.912 1297.67 225.912C1295.44 225.937 1293.64 224.108 1293.64 221.884Z" fill="url(#paint39_linear)"/>
<path d="M1298.34 130.59H1297V219.585H1298.34V130.59Z" fill="url(#paint40_linear)"/>
<path d="M1421.17 228.903C1421.17 226.678 1422.97 224.874 1425.19 224.874C1427.42 224.874 1429.22 226.678 1429.22 228.903C1429.22 231.127 1427.42 232.931 1425.19 232.931C1422.97 232.931 1421.17 231.127 1421.17 228.903Z" fill="url(#paint41_linear)"/>
<path d="M1425.89 137.608H1424.55V226.604H1425.89V137.608Z" fill="url(#paint42_linear)"/>
<path d="M1281.8 296.273C1281.8 294.049 1283.61 292.245 1285.83 292.245C1288.06 292.245 1289.86 294.049 1289.86 296.273C1289.86 298.498 1288.06 300.302 1285.83 300.302C1283.61 300.326 1281.8 298.498 1281.8 296.273Z" fill="url(#paint43_linear)"/>
<path d="M1286.52 127.055H1285.19V293.95H1286.52V127.055Z" fill="url(#paint44_linear)"/>
<path d="M1305.26 265.677C1305.26 263.453 1307.06 261.649 1309.28 261.649C1311.51 261.649 1313.31 263.453 1313.31 265.677C1313.31 267.901 1311.51 269.706 1309.28 269.706C1307.06 269.706 1305.26 267.901 1305.26 265.677Z" fill="url(#paint45_linear)"/>
<path d="M1309.98 130.12H1308.64V263.354H1309.98V130.12Z" fill="url(#paint46_linear)"/>
<path d="M1247.77 442.655C1247.77 440.431 1249.58 438.627 1251.8 438.627C1254.02 438.627 1255.83 440.431 1255.83 442.655C1255.83 444.879 1254.02 446.684 1251.8 446.684C1249.6 446.684 1247.77 444.879 1247.77 442.655Z" fill="url(#paint47_linear)"/>
<path d="M1252.49 133.308H1251.16V440.332H1252.49V133.308Z" fill="url(#paint48_linear)"/>
<path d="M1365.29 309.347C1365.29 307.123 1367.09 305.319 1369.32 305.319C1371.54 305.319 1373.34 307.123 1373.34 309.347C1373.34 311.571 1371.54 313.375 1369.32 313.375C1367.09 313.375 1365.29 311.571 1365.29 309.347Z" fill="url(#paint49_linear)"/>
<path d="M1370.01 0H1368.67V307.024H1370.01V0Z" fill="url(#paint50_linear)"/>
<path d="M1426.45 326.523C1426.45 324.299 1428.26 322.495 1430.48 322.495C1432.71 322.495 1434.51 324.299 1434.51 326.523C1434.51 328.748 1432.71 330.552 1430.48 330.552C1428.26 330.552 1426.45 328.748 1426.45 326.523Z" fill="url(#paint51_linear)"/>
<path d="M1431.15 17.1764H1429.82V324.2H1431.15V17.1764Z" fill="url(#paint52_linear)"/>
<path d="M1179.61 510.248C1179.61 508.024 1181.41 506.22 1183.64 506.22C1185.86 506.22 1187.67 508.024 1187.67 510.248C1187.67 512.473 1185.86 514.277 1183.64 514.277C1181.44 514.277 1179.61 512.473 1179.61 510.248Z" fill="url(#paint53_linear)"/>
<path d="M1184.33 200.901H1183V507.925H1184.33V200.901Z" fill="url(#paint54_linear)"/>
<path d="M1437.43 388.63C1437.43 386.406 1439.23 384.602 1441.46 384.602C1443.68 384.602 1445.48 386.406 1445.48 388.63C1445.48 390.854 1443.68 392.659 1441.46 392.659C1439.23 392.659 1437.43 390.854 1437.43 388.63Z" fill="url(#paint55_linear)"/>
<path d="M1126.89 428.197C1126.89 425.973 1128.7 424.169 1130.92 424.169C1133.15 424.169 1134.95 425.973 1134.95 428.197C1134.95 430.422 1133.15 432.226 1130.92 432.226C1128.7 432.251 1126.89 430.446 1126.89 428.197Z" fill="url(#paint56_linear)"/>
<path d="M1131.59 256.014H1130.26V425.874H1131.59V256.014Z" fill="url(#paint57_linear)"/>
<path d="M1196.34 243.089C1196.34 240.864 1198.14 239.06 1200.37 239.06C1202.59 239.06 1204.4 240.864 1204.4 243.089C1204.4 245.313 1202.59 247.117 1200.37 247.117C1198.14 247.142 1196.34 245.338 1196.34 243.089Z" fill="url(#paint58_linear)"/>
<path d="M1201.06 117.763H1199.73V240.79H1201.06V117.763Z" fill="url(#paint59_linear)"/>
</g>
<defs>
<linearGradient id="paint0_linear" x1="8.46987" y1="205.897" x2="8.46987" y2="135.856" gradientUnits="userSpaceOnUse">
<stop stop-color="#A4FFFF"/>
<stop offset="1" stop-color="#A4FFFF" stop-opacity="0"/>
</linearGradient>
<linearGradient id="paint1_linear" x1="8.46958" y1="205.905" x2="8.46958" y2="135.884" gradientUnits="userSpaceOnUse">
<stop stop-color="#A4FFFF"/>
<stop offset="1" stop-color="#A4FFFF" stop-opacity="0"/>
</linearGradient>
<linearGradient id="paint2_linear" x1="267.542" y1="321.981" x2="267.542" y2="251.961" gradientUnits="userSpaceOnUse">
<stop stop-color="#A4FFFF"/>
<stop offset="1" stop-color="#A4FFFF" stop-opacity="0"/>
</linearGradient>
<linearGradient id="paint3_linear" x1="267.542" y1="332.157" x2="267.542" y2="297.148" gradientUnits="userSpaceOnUse">
<stop stop-color="#A4FFFF"/>
<stop offset="1" stop-color="#A4FFFF" stop-opacity="0"/>
</linearGradient>
<linearGradient id="paint4_linear" x1="191.224" y1="315.457" x2="191.224" y2="245.437" gradientUnits="userSpaceOnUse">
<stop stop-color="#A4FFFF"/>
<stop offset="1" stop-color="#A4FFFF" stop-opacity="0"/>
</linearGradient>
<linearGradient id="paint5_linear" x1="191.227" y1="315.456" x2="191.227" y2="245.438" gradientUnits="userSpaceOnUse">
<stop stop-color="#A4FFFF"/>
<stop offset="1" stop-color="#A4FFFF" stop-opacity="0"/>
</linearGradient>
<linearGradient id="paint6_linear" x1="58.557" y1="111.226" x2="58.557" y2="41.2065" gradientUnits="userSpaceOnUse">
<stop stop-color="#A4FFFF"/>
<stop offset="1" stop-color="#A4FFFF" stop-opacity="0"/>
</linearGradient>
<linearGradient id="paint7_linear" x1="58.5568" y1="111.225" x2="58.5568" y2="41.2073" gradientUnits="userSpaceOnUse">
<stop stop-color="#A4FFFF"/>
<stop offset="1" stop-color="#A4FFFF" stop-opacity="0"/>
</linearGradient>
<linearGradient id="paint8_linear" x1="98.7946" y1="131.676" x2="98.7946" y2="61.6535" gradientUnits="userSpaceOnUse">
<stop stop-color="#A4FFFF"/>
<stop offset="1" stop-color="#A4FFFF" stop-opacity="0"/>
</linearGradient>
<linearGradient id="paint9_linear" x1="98.7946" y1="131.676" x2="98.7946" y2="61.6568" gradientUnits="userSpaceOnUse">
<stop stop-color="#A4FFFF"/>
<stop offset="1" stop-color="#A4FFFF" stop-opacity="0"/>
</linearGradient>
<linearGradient id="paint10_linear" x1="164.431" y1="361.411" x2="164.431" y2="291.41" gradientUnits="userSpaceOnUse">
<stop stop-color="#A4FFFF"/>
<stop offset="1" stop-color="#A4FFFF" stop-opacity="0"/>
</linearGradient>
<linearGradient id="paint11_linear" x1="164.432" y1="361.404" x2="164.432" y2="291.386" gradientUnits="userSpaceOnUse">
<stop stop-color="#A4FFFF"/>
<stop offset="1" stop-color="#A4FFFF" stop-opacity="0"/>
</linearGradient>
<linearGradient id="paint12_linear" x1="226.771" y1="102.282" x2="226.771" y2="32.2625" gradientUnits="userSpaceOnUse">
<stop stop-color="#A4FFFF"/>
<stop offset="1" stop-color="#A4FFFF" stop-opacity="0"/>
</linearGradient>
<linearGradient id="paint13_linear" x1="226.77" y1="102.281" x2="226.77" y2="32.263" gradientUnits="userSpaceOnUse">
<stop stop-color="#A4FFFF"/>
<stop offset="1" stop-color="#A4FFFF" stop-opacity="0"/>
</linearGradient>
<linearGradient id="paint14_linear" x1="115.593" y1="98.3314" x2="115.593" y2="28.3118" gradientUnits="userSpaceOnUse">
<stop stop-color="#A4FFFF"/>
<stop offset="1" stop-color="#A4FFFF" stop-opacity="0"/>
</linearGradient>
<linearGradient id="paint15_linear" x1="115.594" y1="108.507" x2="115.594" y2="73.4979" gradientUnits="userSpaceOnUse">
<stop stop-color="#A4FFFF"/>
<stop offset="1" stop-color="#A4FFFF" stop-opacity="0"/>
</linearGradient>
<linearGradient id="paint16_linear" x1="35.771" y1="86.2509" x2="35.771" y2="16.2097" gradientUnits="userSpaceOnUse">
<stop stop-color="#A4FFFF"/>
<stop offset="1" stop-color="#A4FFFF" stop-opacity="0"/>
</linearGradient>
<linearGradient id="paint17_linear" x1="35.7711" y1="96.4351" x2="35.7711" y2="61.4255" gradientUnits="userSpaceOnUse">
<stop stop-color="#A4FFFF"/>
<stop offset="1" stop-color="#A4FFFF" stop-opacity="0"/>
</linearGradient>
<linearGradient id="paint18_linear" x1="166.018" y1="24.6352" x2="166.018" y2="-45.3847" gradientUnits="userSpaceOnUse">
<stop stop-color="#A4FFFF"/>
<stop offset="1" stop-color="#A4FFFF" stop-opacity="0"/>
</linearGradient>
<linearGradient id="paint19_linear" x1="166.02" y1="34.8103" x2="166.02" y2="-0.195785" gradientUnits="userSpaceOnUse">
<stop stop-color="#A4FFFF"/>
<stop offset="1" stop-color="#A4FFFF" stop-opacity="0"/>
</linearGradient>
<linearGradient id="paint20_linear" x1="109.957" y1="350.188" x2="109.957" y2="280.168" gradientUnits="userSpaceOnUse">
<stop stop-color="#A4FFFF"/>
<stop offset="1" stop-color="#A4FFFF" stop-opacity="0"/>
</linearGradient>
<linearGradient id="paint21_linear" x1="109.956" y1="350.188" x2="109.956" y2="280.168" gradientUnits="userSpaceOnUse">
<stop stop-color="#A4FFFF"/>
<stop offset="1" stop-color="#A4FFFF" stop-opacity="0"/>
</linearGradient>
<linearGradient id="paint22_linear" x1="225.887" y1="302.964" x2="225.887" y2="232.923" gradientUnits="userSpaceOnUse">
<stop stop-color="#A4FFFF"/>
<stop offset="1" stop-color="#A4FFFF" stop-opacity="0"/>
</linearGradient>
<linearGradient id="paint23_linear" x1="225.888" y1="302.97" x2="225.888" y2="232.952" gradientUnits="userSpaceOnUse">
<stop stop-color="#A4FFFF"/>
<stop offset="1" stop-color="#A4FFFF" stop-opacity="0"/>
</linearGradient>
<linearGradient id="paint24_linear" x1="31.7345" y1="510.33" x2="31.7345" y2="385.631" gradientUnits="userSpaceOnUse">
<stop stop-color="#A4FFFF"/>
<stop offset="1" stop-color="#A4FFFF" stop-opacity="0"/>
</linearGradient>
<linearGradient id="paint25_linear" x1="31.7358" y1="479.128" x2="31.7358" y2="249.739" gradientUnits="userSpaceOnUse">
<stop stop-color="#A4FFFF"/>
<stop offset="1" stop-color="#A4FFFF" stop-opacity="0"/>
</linearGradient>
<linearGradient id="paint26_linear" x1="202.548" y1="334.534" x2="202.548" y2="209.835" gradientUnits="userSpaceOnUse">
<stop stop-color="#A4FFFF"/>
<stop offset="1" stop-color="#A4FFFF" stop-opacity="0"/>
</linearGradient>
<linearGradient id="paint27_linear" x1="94.0448" y1="424.523" x2="94.0448" y2="299.825" gradientUnits="userSpaceOnUse">
<stop stop-color="#A4FFFF"/>
<stop offset="1" stop-color="#A4FFFF" stop-opacity="0"/>
</linearGradient>
<linearGradient id="paint28_linear" x1="93.6581" y1="392.633" x2="93.6581" y2="163.247" gradientUnits="userSpaceOnUse">
<stop stop-color="#6D7676"/>
<stop offset="1" stop-color="#A4FFFF" stop-opacity="0"/>
</linearGradient>
<linearGradient id="paint29_linear" x1="179.33" y1="186.369" x2="179.33" y2="61.632" gradientUnits="userSpaceOnUse">
<stop stop-color="#A4FFFF"/>
<stop offset="1" stop-color="#A4FFFF" stop-opacity="0"/>
</linearGradient>
<linearGradient id="paint30_linear" x1="179.33" y1="185.724" x2="179.33" y2="58.8085" gradientUnits="userSpaceOnUse">
<stop stop-color="#484D4D"/>
<stop offset="1" stop-color="#A4FFFF" stop-opacity="0"/>
</linearGradient>
<linearGradient id="paint31_linear" x1="0.0551682" y1="276.828" x2="0.0551682" y2="152.167" gradientUnits="userSpaceOnUse">
<stop stop-color="#A4FFFF"/>
<stop offset="1" stop-color="#A4FFFF" stop-opacity="0"/>
</linearGradient>
<linearGradient id="paint32_linear" x1="0.0551369" y1="276.159" x2="0.0551369" y2="149.245" gradientUnits="userSpaceOnUse">
<stop stop-color="#A4FFFF"/>
<stop offset="1" stop-color="#A4FFFF" stop-opacity="0"/>
</linearGradient>
<linearGradient id="paint33_linear" x1="1322.8" y1="358.066" x2="1322.8" y2="288.068" gradientUnits="userSpaceOnUse">
<stop stop-color="#A4FFFF"/>
<stop offset="1" stop-color="#A4FFFF" stop-opacity="0"/>
</linearGradient>
<linearGradient id="paint34_linear" x1="1322.8" y1="364.217" x2="1322.8" y2="315.388" gradientUnits="userSpaceOnUse">
<stop stop-color="#A4FFFF"/>
<stop offset="1" stop-color="#A4FFFF" stop-opacity="0"/>
</linearGradient>
<linearGradient id="paint35_linear" x1="1218.88" y1="267.943" x2="1218.88" y2="197.923" gradientUnits="userSpaceOnUse">
<stop stop-color="#A4FFFF"/>
<stop offset="1" stop-color="#A4FFFF" stop-opacity="0"/>
</linearGradient>
<linearGradient id="paint36_linear" x1="1218.88" y1="251.561" x2="1218.88" y2="125.179" gradientUnits="userSpaceOnUse">
<stop stop-color="#A4FFFF"/>
<stop offset="1" stop-color="#A4FFFF" stop-opacity="0"/>
</linearGradient>
<linearGradient id="paint37_linear" x1="1172.96" y1="129.083" x2="1172.96" y2="59.063" gradientUnits="userSpaceOnUse">
<stop stop-color="#A4FFFF"/>
<stop offset="1" stop-color="#A4FFFF" stop-opacity="0"/>
</linearGradient>
<linearGradient id="paint38_linear" x1="1172.96" y1="129.083" x2="1172.96" y2="59.0636" gradientUnits="userSpaceOnUse">
<stop stop-color="#A4FFFF"/>
<stop offset="1" stop-color="#A4FFFF" stop-opacity="0"/>
</linearGradient>
<linearGradient id="paint39_linear" x1="1297.67" y1="199.207" x2="1297.67" y2="129.166" gradientUnits="userSpaceOnUse">
<stop stop-color="#A4FFFF"/>
<stop offset="1" stop-color="#A4FFFF" stop-opacity="0"/>
</linearGradient>
<linearGradient id="paint40_linear" x1="1297.67" y1="199.213" x2="1297.67" y2="129.194" gradientUnits="userSpaceOnUse">
<stop stop-color="#A4FFFF"/>
<stop offset="1" stop-color="#A4FFFF" stop-opacity="0"/>
</linearGradient>
<linearGradient id="paint41_linear" x1="1425.21" y1="206.234" x2="1425.21" y2="136.214" gradientUnits="userSpaceOnUse">
<stop stop-color="#A4FFFF"/>
<stop offset="1" stop-color="#A4FFFF" stop-opacity="0"/>
</linearGradient>
<linearGradient id="paint42_linear" x1="1425.21" y1="206.234" x2="1425.21" y2="136.215" gradientUnits="userSpaceOnUse">
<stop stop-color="#A4FFFF"/>
<stop offset="1" stop-color="#A4FFFF" stop-opacity="0"/>
</linearGradient>
<linearGradient id="paint43_linear" x1="1285.85" y1="256.788" x2="1285.85" y2="132.089" gradientUnits="userSpaceOnUse">
<stop stop-color="#A4FFFF"/>
<stop offset="1" stop-color="#A4FFFF" stop-opacity="0"/>
</linearGradient>
<linearGradient id="paint44_linear" x1="1285.85" y1="256.79" x2="1285.85" y2="132.092" gradientUnits="userSpaceOnUse">
<stop stop-color="#A4FFFF"/>
<stop offset="1" stop-color="#A4FFFF" stop-opacity="0"/>
</linearGradient>
<linearGradient id="paint45_linear" x1="1309.3" y1="226.18" x2="1309.3" y2="101.481" gradientUnits="userSpaceOnUse">
<stop stop-color="#A4FFFF"/>
<stop offset="1" stop-color="#A4FFFF" stop-opacity="0"/>
</linearGradient>
<linearGradient id="paint46_linear" x1="1309.3" y1="233.675" x2="1309.3" y2="134.127" gradientUnits="userSpaceOnUse">
<stop stop-color="#A4FFFF"/>
<stop offset="1" stop-color="#A4FFFF" stop-opacity="0"/>
</linearGradient>
<linearGradient id="paint47_linear" x1="1251.82" y1="403.166" x2="1251.82" y2="278.467" gradientUnits="userSpaceOnUse">
<stop stop-color="#A4FFFF"/>
<stop offset="1" stop-color="#A4FFFF" stop-opacity="0"/>
</linearGradient>
<linearGradient id="paint48_linear" x1="1251.82" y1="371.961" x2="1251.82" y2="142.573" gradientUnits="userSpaceOnUse">
<stop stop-color="#A4FFFF"/>
<stop offset="1" stop-color="#A4FFFF" stop-opacity="0"/>
</linearGradient>
<linearGradient id="paint49_linear" x1="1369.33" y1="269.841" x2="1369.33" y2="145.104" gradientUnits="userSpaceOnUse">
<stop stop-color="#A4FFFF"/>
<stop offset="1" stop-color="#A4FFFF" stop-opacity="0"/>
</linearGradient>
<linearGradient id="paint50_linear" x1="1369.33" y1="238.647" x2="1369.33" y2="9.25916" gradientUnits="userSpaceOnUse">
<stop stop-color="#A4FFFF"/>
<stop offset="1" stop-color="#A4FFFF" stop-opacity="0"/>
</linearGradient>
<linearGradient id="paint51_linear" x1="1430.49" y1="287.022" x2="1430.49" y2="162.288" gradientUnits="userSpaceOnUse">
<stop stop-color="#A4FFFF"/>
<stop offset="1" stop-color="#A4FFFF" stop-opacity="0"/>
</linearGradient>
<linearGradient id="paint52_linear" x1="1430.49" y1="255.831" x2="1430.49" y2="26.441" gradientUnits="userSpaceOnUse">
<stop stop-color="#A4FFFF"/>
<stop offset="1" stop-color="#A4FFFF" stop-opacity="0"/>
</linearGradient>
<linearGradient id="paint53_linear" x1="1183.66" y1="470.758" x2="1183.66" y2="346.06" gradientUnits="userSpaceOnUse">
<stop stop-color="#A4FFFF"/>
<stop offset="1" stop-color="#A4FFFF" stop-opacity="0"/>
</linearGradient>
<linearGradient id="paint54_linear" x1="1183.66" y1="439.554" x2="1183.66" y2="210.168" gradientUnits="userSpaceOnUse">
<stop stop-color="#A4FFFF"/>
<stop offset="1" stop-color="#A4FFFF" stop-opacity="0"/>
</linearGradient>
<linearGradient id="paint55_linear" x1="1441.47" y1="349.146" x2="1441.47" y2="224.485" gradientUnits="userSpaceOnUse">
<stop stop-color="#A4FFFF"/>
<stop offset="1" stop-color="#A4FFFF" stop-opacity="0"/>
</linearGradient>
<linearGradient id="paint56_linear" x1="1130.93" y1="388.719" x2="1130.93" y2="264.02" gradientUnits="userSpaceOnUse">
<stop stop-color="#A4FFFF"/>
<stop offset="1" stop-color="#A4FFFF" stop-opacity="0"/>
</linearGradient>
<linearGradient id="paint57_linear" x1="1130.93" y1="388.058" x2="1130.93" y2="261.146" gradientUnits="userSpaceOnUse">
<stop stop-color="#A4FFFF"/>
<stop offset="1" stop-color="#A4FFFF" stop-opacity="0"/>
</linearGradient>
<linearGradient id="paint58_linear" x1="1200.39" y1="203.61" x2="1200.39" y2="78.9117" gradientUnits="userSpaceOnUse">
<stop stop-color="#A4FFFF"/>
<stop offset="1" stop-color="#A4FFFF" stop-opacity="0"/>
</linearGradient>
<linearGradient id="paint59_linear" x1="1200.39" y1="213.385" x2="1200.39" y2="121.474" gradientUnits="userSpaceOnUse">
<stop stop-color="#A4FFFF"/>
<stop offset="1" stop-color="#A4FFFF" stop-opacity="0"/>
</linearGradient>
<clipPath id="clip0">
<rect width="1537" height="572" fill="white" transform="translate(-22)"/>
</clipPath>
</defs>
</svg>
