<svg width="204" height="554" viewBox="0 0 204 554" fill="none" xmlns="http://www.w3.org/2000/svg">
<path d="M160.178 338.139C160.178 335.914 161.982 334.11 164.207 334.11C166.431 334.11 168.235 335.914 168.235 338.139C168.235 340.363 166.431 342.167 164.207 342.167C162.007 342.167 160.178 340.363 160.178 338.139Z" fill="url(#paint0_linear)"/>
<path d="M164.899 246.82H163.564V335.791H164.899V246.82Z" fill="url(#paint1_linear)"/>
<path d="M27.5126 133.901C27.5126 131.677 29.3167 129.873 31.541 129.873C33.7653 129.873 35.5694 131.677 35.5694 133.901C35.5694 136.125 33.7653 137.929 31.541 137.929C29.3167 137.929 27.5126 136.125 27.5126 133.901Z" fill="url(#paint2_linear)"/>
<path d="M32.2329 42.5822H30.8984V131.553H32.2329V42.5822Z" fill="url(#paint3_linear)"/>
<path d="M67.7472 154.34C67.7472 152.115 69.5513 150.311 71.7756 150.311C73.9999 150.311 75.804 152.115 75.804 154.34C75.804 156.564 73.9999 158.368 71.7756 158.368C69.5761 158.393 67.7472 156.589 67.7472 154.34Z" fill="url(#paint4_linear)"/>
<path d="M72.4676 63.0455H71.133V152.041H72.4676V63.0455Z" fill="url(#paint5_linear)"/>
<path d="M133.388 384.082C133.388 381.858 135.192 380.054 137.416 380.054C139.641 380.054 141.445 381.858 141.445 384.082C141.445 386.307 139.641 388.111 137.416 388.111C135.192 388.111 133.388 386.307 133.388 384.082Z" fill="url(#paint6_linear)"/>
<path d="M138.108 292.764H136.774V381.735H138.108V292.764Z" fill="url(#paint7_linear)"/>
<path d="M195.742 124.954C195.742 122.73 197.546 120.926 199.77 120.926C201.994 120.926 203.799 122.73 203.799 124.954C203.799 127.179 201.994 128.983 199.77 128.983C197.546 128.983 195.742 127.179 195.742 124.954Z" fill="url(#paint8_linear)"/>
<path d="M200.438 33.6603H199.103V122.631H200.438V33.6603Z" fill="url(#paint9_linear)"/>
<path d="M84.5529 121C84.5529 118.776 86.357 116.972 88.5813 116.972C90.8055 116.972 92.6097 118.776 92.6097 121C92.6097 123.224 90.8055 125.029 88.5813 125.029C86.357 125.029 84.5529 123.224 84.5529 121Z" fill="url(#paint10_linear)"/>
<path d="M89.2733 74.1916H87.9387V118.677H89.2733V74.1916Z" fill="url(#paint11_linear)"/>
<path d="M4.72607 108.94C4.72607 106.715 6.5302 104.911 8.75447 104.911C10.9787 104.911 12.7829 106.715 12.7829 108.94C12.7829 111.164 10.9787 112.968 8.75447 112.968C6.5302 112.968 4.72607 111.164 4.72607 108.94Z" fill="url(#paint12_linear)"/>
<path d="M9.44651 62.1064H8.11194V106.592H9.44651V62.1064Z" fill="url(#paint13_linear)"/>
<path d="M134.97 47.3026C134.97 45.0783 136.774 43.2742 138.998 43.2742C141.222 43.2742 143.027 45.0783 143.027 47.3026C143.027 49.5269 141.222 51.331 138.998 51.331C136.799 51.3557 134.97 49.5269 134.97 47.3026Z" fill="url(#paint14_linear)"/>
<path d="M139.69 0.493988H138.356V44.9795H139.69V0.493988Z" fill="url(#paint15_linear)"/>
<path d="M78.918 372.862C78.918 370.638 80.7222 368.834 82.9464 368.834C85.1707 368.834 86.9748 370.638 86.9748 372.862C86.9748 375.086 85.1707 376.89 82.9464 376.89C80.7222 376.89 78.918 375.086 78.918 372.862Z" fill="url(#paint16_linear)"/>
<path d="M83.6137 281.543H82.2791V370.539H83.6137V281.543Z" fill="url(#paint17_linear)"/>
<path d="M194.852 325.633C194.852 323.409 196.656 321.605 198.88 321.605C201.105 321.605 202.909 323.409 202.909 325.633C202.909 327.858 201.105 329.662 198.88 329.662C196.656 329.686 194.852 327.882 194.852 325.633Z" fill="url(#paint18_linear)"/>
<path d="M199.548 234.339H198.213V323.335H199.548V234.339Z" fill="url(#paint19_linear)"/>
<path d="M0.697693 549.815C0.697693 547.591 2.50183 545.787 4.7261 545.787C6.95038 545.787 8.7545 547.591 8.7545 549.815C8.7545 552.04 6.95038 553.844 4.7261 553.844C2.50183 553.869 0.697693 552.04 0.697693 549.815Z" fill="url(#paint20_linear)"/>
<path d="M5.3934 240.468H4.05884V547.492H5.3934V240.468Z" fill="url(#paint21_linear)"/>
<path d="M171.522 374.024C171.522 371.8 173.326 369.995 175.55 369.995C177.775 369.995 179.579 371.8 179.579 374.024C179.579 376.248 177.775 378.052 175.55 378.052C173.326 378.052 171.522 376.248 171.522 374.024Z" fill="url(#paint22_linear)"/>
<path d="M176.218 64.6766H174.883V371.701H176.218V64.6766Z" fill="url(#paint23_linear)"/>
<path d="M63.0021 464.008C63.0021 461.784 64.8062 459.98 67.0305 459.98C69.2547 459.98 71.0589 461.784 71.0589 464.008C71.0589 466.232 69.2547 468.036 67.0305 468.036C64.8062 468.061 63.0021 466.232 63.0021 464.008Z" fill="url(#paint24_linear)"/>
<path d="M67.7225 154.686H66.3879V461.71H67.7225V154.686Z" fill="url(#paint25_linear)"/>
<path d="M148.291 225.862C148.291 223.638 150.095 221.834 152.319 221.834C154.543 221.834 156.347 223.638 156.347 225.862C156.347 228.087 154.543 229.891 152.319 229.891C150.095 229.916 148.291 228.111 148.291 225.862Z" fill="url(#paint26_linear)"/>
<path d="M153.011 53.6788H151.676V223.539H153.011V53.6788Z" fill="url(#paint27_linear)"/>
<defs>
<linearGradient id="paint0_linear" x1="164.224" y1="315.457" x2="164.224" y2="245.437" gradientUnits="userSpaceOnUse">
<stop stop-color="#A4FFFF"/>
<stop offset="1" stop-color="#A4FFFF" stop-opacity="0"/>
</linearGradient>
<linearGradient id="paint1_linear" x1="164.227" y1="315.456" x2="164.227" y2="245.438" gradientUnits="userSpaceOnUse">
<stop stop-color="#A4FFFF"/>
<stop offset="1" stop-color="#A4FFFF" stop-opacity="0"/>
</linearGradient>
<linearGradient id="paint2_linear" x1="31.557" y1="111.226" x2="31.557" y2="41.2065" gradientUnits="userSpaceOnUse">
<stop stop-color="#A4FFFF"/>
<stop offset="1" stop-color="#A4FFFF" stop-opacity="0"/>
</linearGradient>
<linearGradient id="paint3_linear" x1="31.5568" y1="111.225" x2="31.5568" y2="41.2073" gradientUnits="userSpaceOnUse">
<stop stop-color="#A4FFFF"/>
<stop offset="1" stop-color="#A4FFFF" stop-opacity="0"/>
</linearGradient>
<linearGradient id="paint4_linear" x1="71.7946" y1="131.676" x2="71.7946" y2="61.6535" gradientUnits="userSpaceOnUse">
<stop stop-color="#A4FFFF"/>
<stop offset="1" stop-color="#A4FFFF" stop-opacity="0"/>
</linearGradient>
<linearGradient id="paint5_linear" x1="71.7946" y1="131.676" x2="71.7946" y2="61.6568" gradientUnits="userSpaceOnUse">
<stop stop-color="#A4FFFF"/>
<stop offset="1" stop-color="#A4FFFF" stop-opacity="0"/>
</linearGradient>
<linearGradient id="paint6_linear" x1="137.431" y1="361.411" x2="137.431" y2="291.41" gradientUnits="userSpaceOnUse">
<stop stop-color="#A4FFFF"/>
<stop offset="1" stop-color="#A4FFFF" stop-opacity="0"/>
</linearGradient>
<linearGradient id="paint7_linear" x1="137.432" y1="361.404" x2="137.432" y2="291.386" gradientUnits="userSpaceOnUse">
<stop stop-color="#A4FFFF"/>
<stop offset="1" stop-color="#A4FFFF" stop-opacity="0"/>
</linearGradient>
<linearGradient id="paint8_linear" x1="199.771" y1="102.282" x2="199.771" y2="32.2625" gradientUnits="userSpaceOnUse">
<stop stop-color="#A4FFFF"/>
<stop offset="1" stop-color="#A4FFFF" stop-opacity="0"/>
</linearGradient>
<linearGradient id="paint9_linear" x1="199.77" y1="102.281" x2="199.77" y2="32.263" gradientUnits="userSpaceOnUse">
<stop stop-color="#A4FFFF"/>
<stop offset="1" stop-color="#A4FFFF" stop-opacity="0"/>
</linearGradient>
<linearGradient id="paint10_linear" x1="88.5926" y1="98.3314" x2="88.5926" y2="28.3118" gradientUnits="userSpaceOnUse">
<stop stop-color="#A4FFFF"/>
<stop offset="1" stop-color="#A4FFFF" stop-opacity="0"/>
</linearGradient>
<linearGradient id="paint11_linear" x1="88.5939" y1="108.507" x2="88.5939" y2="73.4979" gradientUnits="userSpaceOnUse">
<stop stop-color="#A4FFFF"/>
<stop offset="1" stop-color="#A4FFFF" stop-opacity="0"/>
</linearGradient>
<linearGradient id="paint12_linear" x1="8.77104" y1="86.2509" x2="8.77104" y2="16.2097" gradientUnits="userSpaceOnUse">
<stop stop-color="#A4FFFF"/>
<stop offset="1" stop-color="#A4FFFF" stop-opacity="0"/>
</linearGradient>
<linearGradient id="paint13_linear" x1="8.77107" y1="96.4351" x2="8.77107" y2="61.4255" gradientUnits="userSpaceOnUse">
<stop stop-color="#A4FFFF"/>
<stop offset="1" stop-color="#A4FFFF" stop-opacity="0"/>
</linearGradient>
<linearGradient id="paint14_linear" x1="139.018" y1="24.6352" x2="139.018" y2="-45.3847" gradientUnits="userSpaceOnUse">
<stop stop-color="#A4FFFF"/>
<stop offset="1" stop-color="#A4FFFF" stop-opacity="0"/>
</linearGradient>
<linearGradient id="paint15_linear" x1="139.02" y1="34.8103" x2="139.02" y2="-0.195785" gradientUnits="userSpaceOnUse">
<stop stop-color="#A4FFFF"/>
<stop offset="1" stop-color="#A4FFFF" stop-opacity="0"/>
</linearGradient>
<linearGradient id="paint16_linear" x1="82.9571" y1="350.188" x2="82.9571" y2="280.168" gradientUnits="userSpaceOnUse">
<stop stop-color="#A4FFFF"/>
<stop offset="1" stop-color="#A4FFFF" stop-opacity="0"/>
</linearGradient>
<linearGradient id="paint17_linear" x1="82.9558" y1="350.188" x2="82.9558" y2="280.168" gradientUnits="userSpaceOnUse">
<stop stop-color="#A4FFFF"/>
<stop offset="1" stop-color="#A4FFFF" stop-opacity="0"/>
</linearGradient>
<linearGradient id="paint18_linear" x1="198.887" y1="302.964" x2="198.887" y2="232.923" gradientUnits="userSpaceOnUse">
<stop stop-color="#A4FFFF"/>
<stop offset="1" stop-color="#A4FFFF" stop-opacity="0"/>
</linearGradient>
<linearGradient id="paint19_linear" x1="198.888" y1="302.97" x2="198.888" y2="232.952" gradientUnits="userSpaceOnUse">
<stop stop-color="#A4FFFF"/>
<stop offset="1" stop-color="#A4FFFF" stop-opacity="0"/>
</linearGradient>
<linearGradient id="paint20_linear" x1="4.7345" y1="510.33" x2="4.7345" y2="385.631" gradientUnits="userSpaceOnUse">
<stop stop-color="#A4FFFF"/>
<stop offset="1" stop-color="#A4FFFF" stop-opacity="0"/>
</linearGradient>
<linearGradient id="paint21_linear" x1="4.73576" y1="479.128" x2="4.73576" y2="249.739" gradientUnits="userSpaceOnUse">
<stop stop-color="#A4FFFF"/>
<stop offset="1" stop-color="#A4FFFF" stop-opacity="0"/>
</linearGradient>
<linearGradient id="paint22_linear" x1="175.548" y1="334.534" x2="175.548" y2="209.835" gradientUnits="userSpaceOnUse">
<stop stop-color="#A4FFFF"/>
<stop offset="1" stop-color="#A4FFFF" stop-opacity="0"/>
</linearGradient>
<linearGradient id="paint23_linear" x1="175.55" y1="303.331" x2="175.55" y2="73.9432" gradientUnits="userSpaceOnUse">
<stop stop-color="#A4FFFF"/>
<stop offset="1" stop-color="#A4FFFF" stop-opacity="0"/>
</linearGradient>
<linearGradient id="paint24_linear" x1="67.0448" y1="424.523" x2="67.0448" y2="299.825" gradientUnits="userSpaceOnUse">
<stop stop-color="#A4FFFF"/>
<stop offset="1" stop-color="#A4FFFF" stop-opacity="0"/>
</linearGradient>
<linearGradient id="paint25_linear" x1="67.0461" y1="393.319" x2="67.0461" y2="163.932" gradientUnits="userSpaceOnUse">
<stop stop-color="#A4FFFF"/>
<stop offset="1" stop-color="#A4FFFF" stop-opacity="0"/>
</linearGradient>
<linearGradient id="paint26_linear" x1="152.33" y1="186.369" x2="152.33" y2="61.632" gradientUnits="userSpaceOnUse">
<stop stop-color="#A4FFFF"/>
<stop offset="1" stop-color="#A4FFFF" stop-opacity="0"/>
</linearGradient>
<linearGradient id="paint27_linear" x1="152.33" y1="185.724" x2="152.33" y2="58.8085" gradientUnits="userSpaceOnUse">
<stop stop-color="#A4FFFF"/>
<stop offset="1" stop-color="#A4FFFF" stop-opacity="0"/>
</linearGradient>
</defs>
</svg>
